<svg data-name="Layer 1" xmlns="http://www.w3.org/2000/svg" viewBox="0 0 128 128">
  <path fill="#4ab7e5" d="M113.854 55.4h-8.1a1.75 1.75 0 0 0-1.75 1.75v1.75h-.5a1.753 1.753 0 0 0-1.679 1.254l-.789 2.672-6.395-16.7A8.969 8.969 0 0 0 86.31 40.4h-6.789a38.509 38.509 0 0 0 1.627-4.985 50.416 50.416 0 0 0 1.45-13.2 1.751 1.751 0 0 0-1.222-1.631c-7.917-2.505-13.856-4.9-16.692-6.1a1.755 1.755 0 0 0-1.368 0c-2.836 1.2-8.775 3.6-16.692 6.1a1.751 1.751 0 0 0-1.224 1.624 50.412 50.412 0 0 0 1.45 13.2 38.509 38.509 0 0 0 1.629 4.992H41.69a8.969 8.969 0 0 0-8.327 5.729l-6.395 16.7-.789-2.672A1.753 1.753 0 0 0 24.5 58.9H24v-1.75a1.75 1.75 0 0 0-1.75-1.75h-8.1a1.751 1.751 0 0 0-1.75 1.75v6.375a1.75 1.75 0 0 0 1.75 1.75h8.1a1.742 1.742 0 0 0 1.524-.905l1.1 3.708-6.327 11.588c-.007.013-.01.032-.016.045a1.737 1.737 0 0 0-.2.793v16.015a5.184 5.184 0 0 0 4.864 5.159v5.756a6.237 6.237 0 0 0 6.23 6.229h6.885a6.236 6.236 0 0 0 6.229-6.229v-5.723h42.92v5.723a6.236 6.236 0 0 0 6.229 6.229h6.885a6.237 6.237 0 0 0 6.23-6.229v-5.756a5.184 5.184 0 0 0 4.864-5.159V80.5a1.724 1.724 0 0 0-.2-.805.318.318 0 0 0-.009-.033l-6.328-11.588 1.1-3.708a1.743 1.743 0 0 0 1.524.905h8.1a1.75 1.75 0 0 0 1.75-1.75v-6.375a1.751 1.751 0 0 0-1.75-1.746zM20.5 61.771h-4.6V58.9h4.6zm78.492 24.536a4.052 4.052 0 1 1-4.053-4.053 4.057 4.057 0 0 1 4.053 4.053zm-75.961-7.553 4.762-8.73h72.414l4.762 8.73zm54.64 3.5-1.024 2.986H51.353l-1.024-2.986zm-40.559 4.053a4.052 4.052 0 1 1-4.051-4.053 4.056 4.056 0 0 1 4.051 4.053zm52.867-25.783H38.021L42.092 49.9h12.564a24.965 24.965 0 0 0 8.717 5.579 1.753 1.753 0 0 0 1.254 0 24.965 24.965 0 0 0 8.717-5.579h12.565zM64 17.986c2.934 1.225 8.23 3.319 15.106 5.54a47.039 47.039 0 0 1-1.35 11.023c-2.2 8.667-6.829 14.52-13.756 17.408-6.927-2.888-11.553-8.741-13.756-17.408a47.028 47.028 0 0 1-1.35-11.023c6.876-2.221 12.172-4.315 15.106-5.54zm-27.369 29.39A5.451 5.451 0 0 1 41.69 43.9h8.444a27.878 27.878 0 0 0 1.57 2.5H41.69a2.929 2.929 0 0 0-2.723 1.875l-5.124 13.373a1.749 1.749 0 0 0 1.634 2.376h57.046a1.749 1.749 0 0 0 1.634-2.376l-5.122-13.376A2.935 2.935 0 0 0 86.31 46.4H76.3a27.878 27.878 0 0 0 1.57-2.5h8.44a5.451 5.451 0 0 1 5.059 3.48L98.7 66.524H29.3zm2.41 60.058a2.733 2.733 0 0 1-2.729 2.729h-6.885a2.733 2.733 0 0 1-2.73-2.729v-5.723h12.344zm59.532 2.729h-6.885a2.733 2.733 0 0 1-2.729-2.729v-5.723H101.3v5.723a2.733 2.733 0 0 1-2.727 2.729zm7.594-13.644a1.694 1.694 0 0 1-1.692 1.692h-80.95a1.694 1.694 0 0 1-1.692-1.692V82.254H26.7a7.552 7.552 0 1 0 12.724 0h7.207l1.818 5.3A1.749 1.749 0 0 0 50.1 88.74h27.8a1.749 1.749 0 0 0 1.656-1.183l1.818-5.3h7.207a7.552 7.552 0 1 0 12.724 0h4.865zm5.933-34.748h-4.6V58.9h4.6z"/>
  <path fill="#12dd85" d="M60.651 39.163a1.747 1.747 0 0 0 1.251.527 1.748 1.748 0 0 0 1.25-.525l8.36-8.537a1.75 1.75 0 1 0-2.5-2.449l-7.108 7.258-2.915-2.987a1.75 1.75 0 1 0-2.5 2.445z"/>
</svg>
