<svg xmlns="http://www.w3.org/2000/svg" viewBox="0 0 512 512" style="enable-background:new 0 0 512 512" xml:space="preserve"><path style="fill:#d4c8b9" d="M195.539 447.238h-42.442v31.064zM315.754 447.238h42.44v31.064z"/><path style="fill:#ff8c01" d="M49.306 337.278H37.074c-8.932 0-16.174 7.242-16.174 16.175v26.956c0 8.932 7.242 16.174 16.174 16.174h12.232v-59.305zM462.199 337.278h12.231c8.934 0 16.176 7.242 16.176 16.175v26.956c0 8.932-7.242 16.174-16.176 16.174h-12.231v-59.305z"/><path style="fill:#f26d0a" d="M20.9 354.767v25.642c0 8.932 7.242 16.174 16.174 16.174h12.232v-25.641H37.074c-8.932-.001-16.174-7.242-16.174-16.175zM474.43 370.941h-12.231v25.641h12.231c8.934 0 16.176-7.241 16.176-16.174v-25.642c0 8.934-7.242 16.175-16.176 16.175z"/><circle style="fill:#c2c6d3" cx="34.111" cy="249.86" r="29.013"/><circle style="fill:#c2c6d3" cx="478.202" cy="249.86" r="29.013"/><path style="fill:#a9adbf" d="M46.726 223.728c-19.185-9.284-41.633 4.722-41.633 26.13 0 21.405 22.44 35.42 41.633 26.132-21.836-10.567-21.811-41.709 0-52.262zM474.426 249.858c0-11.5 6.692-21.436 16.393-26.13-19.186-9.283-41.633 4.722-41.633 26.13 0 21.406 22.44 35.418 41.633 26.132-9.701-4.694-16.393-14.631-16.393-26.132z"/><path style="fill:#87a1ff" d="M414.69 286.061H96.601c-26.797 0-48.521 21.724-48.521 48.522v83.565h415.132v-83.565c0-26.799-21.725-48.522-48.522-48.522z"/><path style="fill:#4c73c1" d="M121.906 286.061H96.601c-26.797 0-48.521 21.724-48.521 48.522v83.565h25.305v-83.565c-.001-26.799 21.723-48.522 48.521-48.522zM332.646 280.644H178.645c-3.399 0-5.836 3.292-4.839 6.546l11.72 38.2a5.061 5.061 0 0 0 4.839 3.574h130.559a5.058 5.058 0 0 0 4.837-3.574l11.722-38.2c.999-3.258-1.441-6.546-4.837-6.546z"/><path style="fill:#5b88ce" d="M254.977 280.644a208.018 208.018 0 0 0-13.071 48.32h79.019a5.058 5.058 0 0 0 4.837-3.574c12.744-41.528 12.982-39.951 10.954-42.693-2.091-2.829 2.569-2.053-81.739-2.053z"/><path style="fill:#3562aa" d="m211.507 325.39-11.721-38.2a5.067 5.067 0 0 1 .768-4.493 5.065 5.065 0 0 1 4.07-2.053h-25.98c-3.399 0-5.836 3.292-4.839 6.546l11.72 38.2a5.061 5.061 0 0 0 4.839 3.574h25.98a5.06 5.06 0 0 1-4.837-3.574z"/><path style="fill:#c8e5fc" d="M140.744 349.344c0 16.624-13.476 30.1-30.101 30.1-16.626 0-30.103-13.476-30.103-30.1 0-16.627 13.477-30.103 30.103-30.103 16.624-.001 30.101 13.476 30.101 30.103zM370.199 349.344c0 16.624 13.477 30.1 30.102 30.1s30.102-13.476 30.102-30.1c0-16.627-13.477-30.103-30.102-30.103s-30.102 13.476-30.102 30.103z"/><path style="fill:#8fc8f2" d="M123.294 322.028c-19.917-9.243-42.755 5.35-42.755 27.315 0 21.964 22.838 36.55 42.755 27.312-23.247-10.785-23.209-43.855 0-54.627zM412.953 322.028c-19.916-9.242-42.754 5.35-42.754 27.315 0 16.624 13.477 30.1 30.102 30.1 4.521 0 8.804-1.004 12.652-2.788-23.242-10.784-23.207-43.855 0-54.627z"/><path style="fill:#9fb8ff" d="M419.484 286.345v-9.325c0-88.041-71.372-159.412-159.414-159.412h-8.849c-88.042 0-159.413 71.372-159.413 159.412v9.244c3.065-.272 322.868-.437 327.676.081z"/><path style="fill:#9fb8ff" d="M252.867 286.061c174.373 0 162.842-.122 166.617.285v-9.325c0-44.081-17.893-83.983-46.813-112.84-55.248 21.689-99.034 66.175-119.804 121.88z"/><path style="fill:#87a1ff" d="M117.112 277.02c0-85.281 66.968-154.921 151.187-159.203a161.568 161.568 0 0 0-8.229-.209h-8.849c-88.042 0-159.413 71.372-159.413 159.412v9.244c2.99-.264 2.126-.203 25.305-.203v-9.041z"/><path style="fill:#c8e5fc" d="M259.116 153.973h-6.943c-66.245 0-125.057 52.604-125.057 127.086a5.061 5.061 0 0 0 5.061 5.062h246.934a5.062 5.062 0 0 0 5.062-5.062v-2.028c.001-68.957-56.101-125.058-125.057-125.058z"/><path style="fill:#8fc8f2" d="M154.109 281.06c0-70.708 53.127-121.748 115.032-126.684a126.46 126.46 0 0 0-10.025-.402h-6.943c-66.245 0-125.057 52.604-125.057 127.086a5.061 5.061 0 0 0 5.061 5.062h26.992a5.062 5.062 0 0 1-5.06-5.062z"/><path style="fill:#777984" d="M73.239 447.238v38.972c0 8.931 7.242 16.172 16.174 16.172h48.522c8.933 0 16.174-7.241 16.174-16.172v-38.972h-80.87zM357.182 447.238v38.972c0 8.931 7.241 16.172 16.174 16.172h48.523c8.932 0 16.173-7.241 16.173-16.172v-38.972h-80.87z"/><path style="fill:#61626d" d="M98.544 486.211v-38.972H73.239v38.972c0 8.931 7.242 16.172 16.174 16.172h25.305c-8.932.001-16.174-7.24-16.174-16.172zM382.488 486.211v-38.972h-25.306v38.972c0 8.931 7.241 16.172 16.174 16.172h25.304c-8.932.001-16.172-7.24-16.172-16.172z"/><path style="fill:#c2c6d3" d="M480.959 432.694c0 8.592-6.965 15.557-15.558 15.557H45.891c-8.592 0-15.558-6.965-15.558-15.557 0-8.591 6.966-15.558 15.558-15.558H465.4c8.595 0 15.559 6.967 15.559 15.558z"/><path style="fill:#a9adbf" d="M465.4 432.693H45.891c-5.755 0-10.768-3.134-13.46-7.779-5.996 10.351 1.493 23.337 13.46 23.337H465.4c11.97 0 19.457-12.984 13.46-23.337-2.691 4.645-7.705 7.779-13.46 7.779z"/><path style="fill:#01cc79" d="M365.153 32.244c-47.932 0-86.929 38.983-86.929 86.901s38.996 86.901 86.929 86.901c47.934 0 86.93-38.983 86.93-86.901s-38.995-86.901-86.93-86.901z"/><path style="fill:#0baa65" d="M305.317 119.145c0-43.311 31.861-79.321 73.382-85.843-52.746-8.299-100.474 32.586-100.474 85.843 0 53.255 47.722 94.144 100.474 85.843-41.521-6.523-73.382-42.532-73.382-85.843z"/><path style="fill:#01cc79" d="M365.126 228.586c-60.346 0-109.441-49.096-109.441-109.441S304.779 9.703 365.126 9.703s109.441 49.095 109.441 109.441-49.095 109.442-109.441 109.442zm.027-193.837c-46.551 0-84.424 37.86-84.424 84.396s37.873 84.396 84.424 84.396c46.553 0 84.425-37.86 84.425-84.396.001-46.536-37.872-84.396-84.425-84.396z"/><path style="fill:#12dd85" d="M414.639 187.461a86.288 86.288 0 0 0 29.899 6.911c48.155-50.807 36.939-133.073-23.346-169.182a86.858 86.858 0 0 0-26.858 14.759c63.181 23.336 75.04 107.778 20.305 147.512z"/><path style="fill:#06b569" d="M280.973 125.224c-.143-2.011-.242-4.032-.242-6.079s.1-4.069.242-6.079c2.935-53.338 44.24-96.614 96.711-102.637-64.999-7.467-121.999 43.458-121.999 108.716 0 65.082 56.827 116.202 121.999 108.717-52.472-6.024-93.777-49.3-96.711-102.638z"/><path style="fill:#f5f5f5" d="M354.234 157.549c-3.07 0-6.144-1.121-8.558-3.383l-29.203-27.35c-5.048-4.728-5.308-12.652-.581-17.7 4.729-5.047 12.654-5.307 17.701-.58l20.165 18.885 38.134-39.812c4.783-4.997 12.712-5.165 17.706-.382 4.993 4.784 5.164 12.711.38 17.706l-46.698 48.755a12.49 12.49 0 0 1-9.046 3.861z"/><path d="M111.98 311.624c-20.571 0-37.307 16.736-37.307 37.307 0 20.57 16.736 37.305 37.307 37.305s37.306-16.735 37.306-37.305c.001-20.571-16.735-37.307-37.306-37.307zm0 59.586c-12.285 0-22.28-9.994-22.28-22.278 0-12.286 9.995-22.28 22.28-22.28s22.279 9.995 22.279 22.28c.001 12.284-9.994 22.278-22.279 22.278zM398.669 311.624c-20.57 0-37.305 16.736-37.305 37.307 0 20.57 16.735 37.305 37.305 37.305 20.571 0 37.307-16.735 37.307-37.305 0-20.571-16.736-37.307-37.307-37.307zm0 59.586c-12.285 0-22.278-9.994-22.278-22.278 0-12.286 9.994-22.28 22.278-22.28 12.286 0 22.28 9.995 22.28 22.28 0 12.284-9.994 22.278-22.28 22.278zM322.948 379.215H188.991a7.514 7.514 0 1 0 0 15.028h133.958c4.15 0 7.514-3.363 7.514-7.514s-3.364-7.514-7.515-7.514zM322.948 351.2H188.991a7.514 7.514 0 1 0 0 15.028h133.958c4.15 0 7.514-3.363 7.514-7.514s-3.364-7.514-7.515-7.514z"/><path d="M512 250.467c0-19.976-16.252-36.228-36.229-36.228-24.383 0-42.01 23.822-34.513 47.246l-16.196 10.187c-.547-16.264-3.443-32.189-8.647-47.496 71.926-35.346 88.074-130.879 31.257-187.696a7.513 7.513 0 0 0-10.626 10.624c19.276 19.277 29.891 44.86 29.891 72.039 0 83.386-95.244 131.355-162.141 82.148-25.353-18.588-41.714-48.675-41.714-82.148 0-79.525 87.503-128.423 155.086-86.938a7.513 7.513 0 0 0 10.334-2.472 7.513 7.513 0 0 0-2.472-10.334c-75.21-46.167-172.524 5.133-177.755 92.695-87.734 1.49-159.03 71.668-162.316 158.961l-15.216-9.57c7.494-23.416-10.118-47.246-34.511-47.246C16.252 214.238 0 230.49 0 250.467c0 33.223 41.205 48.838 63.273 24.074l13.51 8.497c-18.661 7.779-32.19 25.456-34.013 46.438h-4.605c-12.97 0-23.521 10.552-23.521 23.521v26.68c0 12.969 10.552 23.521 23.521 23.521h4.381v6.954c-10.062 2.416-17.565 11.484-17.565 22.276 0 12.633 10.279 22.911 22.912 22.911h19.553V486.4c0 12.969 10.552 23.521 23.521 23.521h48.025c12.97 0 23.521-10.551 23.521-23.521v-4.016l36.949-27.043h112.069l36.948 27.043v4.016c0 12.969 10.551 23.521 23.521 23.521h48.026c12.969 0 23.521-10.551 23.521-23.521v-31.059h19.555c12.634 0 22.912-10.279 22.912-22.911 0-10.792-7.503-19.86-17.565-22.276V403.2h4.592c12.969 0 23.521-10.552 23.521-23.521v-26.68c0-12.969-10.551-23.521-23.521-23.521h-4.817c-1.804-20.756-15.063-38.278-33.414-46.184l13.914-8.752c22.11 24.809 63.276 9.094 63.276-24.075zM36.229 271.671c-11.691 0-21.202-9.511-21.202-21.203 0-11.69 9.511-21.201 21.202-21.201s21.202 9.511 21.202 21.201c.001 11.691-9.511 21.203-21.202 21.203zm373.911 7.114h-19.928c-.062-15.176-2.66-29.928-7.742-43.99a117.249 117.249 0 0 0 20.032-4.859c5.585 16.783 7.638 32.407 7.638 48.849zm-82.068 15.087-9.696 29.381h-125.76l-9.695-29.381h145.151zm-192.27-15.087c.279-59.52 46.39-115.707 120.823-115.707 17.715 43.722 61.134 73.841 110.259 73.005 5.449 13.563 8.24 27.9 8.308 42.702h-239.39zm112.525-151.673a117.656 117.656 0 0 0 3.346 20.944c-72.029.21-130.592 58.721-130.893 130.729h-19.928c0-85.932 67.921-150.219 147.475-151.673zM38.165 388.174c-4.684 0-8.494-3.811-8.494-8.494V353c0-4.684 3.811-8.494 8.494-8.494h4.381v43.67h-4.381v-.002zM147.488 486.4c0 4.683-3.811 8.494-8.494 8.494H90.969c-4.684 0-8.494-3.811-8.494-8.494v-31.059h65.013V486.4zm15.027-22.637v-8.421h11.506l-11.506 8.421zm174.458-8.422h11.505v8.42l-11.505-8.42zM428.52 486.4c0 4.683-3.811 8.494-8.494 8.494H372c-4.683 0-8.494-3.811-8.494-8.494v-31.059h65.013V486.4h.001zm53.015-133.402v26.68c0 4.684-3.811 8.494-8.494 8.494h-4.592v-43.67h4.592c4.683.002 8.494 3.812 8.494 8.496zm-28.114-18.675v75.196H104.06a7.514 7.514 0 1 0 0 15.028h359.042c4.348 0 7.885 3.537 7.885 7.885s-3.537 7.884-7.885 7.884H47.893c-4.348 0-7.885-3.536-7.885-7.884 0-4.348 3.537-7.885 7.885-7.885h30.454a7.514 7.514 0 1 0 0-15.028H57.573c0-13.992.212-13.831.212-13.831 0-62.907-.212-61.365-.212-61.365 0-22.337 18.173-40.511 40.511-40.511 4.978 0 64.035.06 69.014.06l12.951 39.25a7.513 7.513 0 0 0 7.135 5.158H323.81a7.514 7.514 0 0 0 7.135-5.158l12.952-39.25c43.366 0 39.175.41 40.844-.06 59.18 0 6.175-.024 32.831.276 20.149 2.32 35.849 19.474 35.849 40.235zm22.35-105.058c11.691 0 21.202 9.511 21.202 21.201 0 11.692-9.511 21.203-21.202 21.203-11.692 0-21.204-9.511-21.204-21.203-.001-11.689 9.512-21.201 21.204-21.201z"/><path d="M423.233 190.212c21.408-17.569 33.686-43.472 33.686-71.067 0-50.679-41.23-91.91-91.91-91.91s-91.91 41.23-91.91 91.91c0 65.065 66.353 109.935 126.825 85.021a7.514 7.514 0 0 0-5.726-13.894c-50.509 20.814-106.072-16.642-106.072-71.127 0-42.392 34.49-76.883 76.883-76.883s76.883 34.49 76.883 76.883c0 23.079-10.276 44.748-28.192 59.451a7.513 7.513 0 1 0 9.533 11.616z"/><path d="M400.818 76.234a20.12 20.12 0 0 0-14.469 6.178l-32.995 34.446-14.744-13.807c-8.09-7.576-20.772-7.128-28.319.93-7.568 8.08-7.156 20.75.929 28.32l29.203 27.349c8.124 7.61 20.694 7.04 28.166-.764l46.699-48.754c12.197-12.736 3.066-33.898-14.47-33.898zm3.616 23.503c-50.569 52.794-47.296 50.299-50.318 50.299-2.72 0-1.124.799-32.626-28.704a4.972 4.972 0 0 1-1.582-3.49c-.144-4.479 5.202-6.847 8.43-3.82l20.165 18.886a7.514 7.514 0 0 0 10.562-.288l38.136-39.814a5.002 5.002 0 0 1 7.08-.15 5.012 5.012 0 0 1 .153 7.081z"/></svg>
