<?xml version="1.0" encoding="iso-8859-1"?>
<!-- Uploaded to: SVG Repo, www.svgrepo.com, Generator: SVG Repo Mixer Tools -->
<!DOCTYPE svg PUBLIC "-//W3C//DTD SVG 1.1//EN" "http://www.w3.org/Graphics/SVG/1.1/DTD/svg11.dtd">
<svg fill="#000000" height="800px" width="800px" version="1.1" id="Capa_1" xmlns="http://www.w3.org/2000/svg" xmlns:xlink="http://www.w3.org/1999/xlink" 
	 viewBox="0 0 433.758 433.758" xml:space="preserve">
<g>
	<path d="M237.598,306.044c-5.553-3.209-15.284,0.67-23.14,14.274c-2.938,5.087-4.82,10.448-5.304,15.097
		c-0.808,7.778,2.48,10.907,4.512,12.08c1.208,0.698,2.613,1.06,4.154,1.06c5.544,0,12.839-4.688,18.985-15.334
		c2.938-5.087,4.82-10.448,5.304-15.097C242.918,310.345,239.629,307.216,237.598,306.044z M234.152,317.298
		c-0.364,3.502-1.922,7.848-4.274,11.923c-5.141,8.905-11.153,11.947-12.212,11.347c-0.147-0.085-0.874-1.244-0.554-4.326
		c0.363-3.503,1.921-7.849,4.273-11.923c4.723-8.181,10.183-11.421,11.859-11.421c0.148,0,0.267,0.025,0.353,0.075
		C233.745,313.056,234.473,314.216,234.152,317.298z"/>
	<path d="M404.265,209.145c-5.55-3.202-15.283,0.67-23.14,14.275c-7.855,13.606-6.345,23.972-0.792,27.178
		c1.208,0.698,2.613,1.06,4.154,1.06c5.544,0,12.84-4.688,18.985-15.334C411.328,222.718,409.817,212.352,404.265,209.145z
		 M396.545,232.324c-5.143,8.906-11.154,11.96-12.212,11.347c-1.057-0.61-1.42-7.346,3.72-16.25
		c5.14-8.9,11.155-11.956,12.213-11.347C401.322,216.684,401.686,223.42,396.545,232.324z"/>
	<path d="M433.758,137.526c0-1.429-0.762-2.748-1.998-3.463l-135.69-78.439c-1.238-0.717-2.766-0.717-4.004,0l-72.772,42.069
		l-10.341-5.978c-9.421-5.447-22.169,2.438-33.415,9.392c-0.854,0.528-1.688,1.042-2.511,1.545c-4.567,2.474-7.847,6.69-9.107,11.81
		c-0.021,0.085-3.393,19.051-3.393,19.051s-40.955-23.827-41.893-24.106c-1.707-0.508-4.161-0.574-5.367,1.462l-25.192,62.313
		L1.291,235.178C0.469,235.936,0,237.004,0,238.122v58.01c0,1.429,0.763,2.75,2,3.464l136.05,78.54c0.619,0.357,1.31,0.536,2,0.536
		s2.32-0.548,2.32-0.548l47.466-27.772c1.58,8.167,5.65,14.441,11.794,17.987c3.47,2.004,7.36,3.001,11.508,3.001
		c4.979,0,10.328-1.439,15.753-4.303c9.341-4.931,17.926-13.606,24.175-24.43c6.249-10.822,9.47-22.596,9.069-33.15
		c-0.011-0.287-0.036-0.566-0.052-0.85l94.46-54.63c1.626,7.673,5.565,13.892,11.754,17.465c3.552,2.051,7.484,3.024,11.603,3.024
		c13.723-0.001,29.481-10.827,39.833-28.756c9.652-16.718,11.604-34.416,6.262-46.366l6.976-9.442
		c0.509-0.688,0.783-1.521,0.783-2.377V137.57C433.755,137.555,433.758,137.541,433.758,137.526z M294.067,63.707l127.699,73.82
		l-43.891,25.384L250.164,89.087L294.067,63.707z M242.172,93.708l127.714,73.825l-43.771,25.315l0.023-5.218
		c0.016-3.289,0.245-6.539,0.487-9.98l0.077-1.094c0.684-9.794-4.369-19.3-12.874-24.217l-86.543-50.026L242.172,93.708z
		 M204.948,98.641l104.876,60.623c5.877,3.398,9.37,9.967,8.897,16.734l-0.076,1.087c-0.242,3.419-0.491,6.954-0.508,10.508
		l-0.044,9.893l-9.786,5.66l0.011-4.452c0.009-3.294,0.238-6.552,0.481-10l0.068-0.978c0.684-9.795-4.369-19.301-12.874-24.217
		l-104.876-60.624c-0.492-0.284-0.995-0.537-1.502-0.773C195.647,98.897,201.572,96.689,204.948,98.641z M171.718,116.258
		c0.819-3.179,3.016-5.735,6.041-7.024c3.063-1.304,6.473-1.097,9.355,0.568l104.876,60.624c5.878,3.397,9.37,9.966,8.897,16.734
		l-0.068,0.972c-0.242,3.43-0.491,6.977-0.501,10.542l-0.023,9.106l-27.601,15.963l-23.391-13.522l7.061-17.463
		c0.819-2.025-0.149-4.306-2.155-5.156l-86.312-49.832L171.718,116.258z M246.275,217.709l18.429,10.654l-29.677,17.163
		L246.275,217.709z M118.757,118.635l128.866,74.401l-22.499,55.645L96.289,174.208L118.757,118.635z M91.411,180.629
		l128.436,74.242l-80.017,57.046L11.749,237.43L91.411,180.629z M189.11,341.51l-45.06,26.364v-12.018l46.822-27.082
		C189.778,333.092,189.179,337.377,189.11,341.51z M83.348,325.612v11.707l-32-18.473v-11.844L83.348,325.612z M24.551,282.164
		v-9.045l94.797,55.13v9.045L24.551,282.164z M8,244.505l8.551,4.973v28.034L8,272.539V244.505z M119.348,318.994l-94.797-55.129
		v-9.734l94.797,55.129V318.994z M127.348,313.912l8.702,5.061v28.034l-8.702-5.061V313.912z M8,281.793l35.348,20.557v11.878
		L8,293.822V281.793z M91.348,341.938v-11.673l44.702,25.997v11.483L91.348,341.938z M246.139,338.608
		c-5.505,9.534-12.957,17.118-20.981,21.354c-7.424,3.919-14.358,4.433-19.526,1.449c-5.169-2.984-8.19-9.247-8.509-17.635
		c-0.344-9.067,2.499-19.313,8.004-28.847s12.956-17.118,20.98-21.354c4.239-2.238,8.318-3.365,12.001-3.365
		c2.766,0,5.309,0.636,7.525,1.916c5.169,2.984,8.19,9.247,8.509,17.635C254.485,318.829,251.643,329.074,246.139,338.608z
		 M355.698,245.225l-94.997,54.94c-1.927-6.695-5.706-11.871-11.068-14.967c-7.636-4.409-17.317-3.946-27.261,1.302
		c-9.341,4.931-17.926,13.606-24.174,24.43c-1.181,2.045-2.252,4.123-3.213,6.221l-50.936,29.461v-27.881l85.057-60.638
		l196.648-113.631v41.746l-4.458,6.035c-1.46-1.533-3.124-2.861-4.997-3.942c-15.386-8.883-37.978,2.42-51.435,25.731
		C358.76,224.607,355.745,235.569,355.698,245.225z M412.806,241.712c-10.842,18.777-29.39,29.221-40.508,22.804
		c-11.115-6.418-11.347-27.704-0.505-46.482c8.668-15.015,22.264-24.699,33.048-24.699c2.703,0,5.23,0.609,7.459,1.896
		C423.415,201.647,423.646,222.933,412.806,241.712z"/>
</g>
</svg>