<?xml version="1.0" encoding="iso-8859-1"?>
<!-- Uploaded to: SVG Repo, www.svgrepo.com, Generator: SVG Repo Mixer Tools -->
<!DOCTYPE svg PUBLIC "-//W3C//DTD SVG 1.1//EN" "http://www.w3.org/Graphics/SVG/1.1/DTD/svg11.dtd">
<svg fill="#000000" height="800px" width="800px" version="1.1" id="Capa_1" xmlns="http://www.w3.org/2000/svg" xmlns:xlink="http://www.w3.org/1999/xlink" 
	 viewBox="0 0 472.375 472.375" xml:space="preserve">
<g>
	<path d="M220.885,351.796c-1.945-1.124-6.107-2.358-12.114,1.995c-3.543,2.567-7.006,6.601-9.75,11.354
		c-5.589,9.68-7.601,21.585-0.63,25.61c0.902,0.521,2.282,1.066,4.102,1.066c2.103,0,4.792-0.729,8.013-3.063
		c3.543-2.567,7.006-6.6,9.75-11.354C225.844,367.727,227.855,355.822,220.885,351.796z M213.327,373.407
		c-4.411,7.638-9.694,10.752-10.9,10.447c-0.946-0.936-0.89-7.067,3.521-14.708c4.214-7.3,9.222-10.468,10.715-10.468
		c0.069,0,0.132,0.007,0.186,0.021C217.795,359.634,217.738,365.766,213.327,373.407z"/>
	<path d="M415.963,235.978c-6.97-4.018-16.275,3.671-21.863,13.352c-2.745,4.754-4.506,9.769-4.958,14.121
		c-0.767,7.38,2.383,10.365,4.328,11.488c0.902,0.521,2.282,1.066,4.102,1.066c2.103,0,4.792-0.728,8.013-3.062
		c3.543-2.567,7.006-6.601,9.75-11.354C420.923,251.91,422.935,240.004,415.963,235.978z M408.406,257.589
		c-4.409,7.639-9.659,10.747-10.901,10.447c-0.945-0.936-0.889-7.068,3.522-14.707c4.215-7.3,9.224-10.469,10.715-10.469
		c0.069,0,0.132,0.007,0.186,0.021C412.874,243.817,412.817,249.949,408.406,257.589z"/>
	<path d="M471.221,162.737l-35.212-35.639c-0.476-0.568-1.104-1.004-1.828-1.238L309.076,53.194
		c-1.244-0.722-2.781-0.722-4.025,0.004L106.807,168.892c-0.765,0.447-1.359,1.135-1.691,1.956l-23.344,57.738L1.292,286.081
		C0.469,286.839,0,287.907,0,289.026v53.824c0,1.429,0.763,2.75,2,3.464l126.231,72.872c0.619,0.357,1.31,0.536,2,0.536
		s2.146-0.634,2.219-0.683l43.776-25.432c1.536,7.466,5.323,13.213,10.998,16.49c3.337,1.927,7.034,2.843,10.901,2.843
		c12.84-0.001,27.559-10.095,37.216-26.823c5.825-10.088,8.827-21.066,8.454-30.913c-0.008-0.215-0.028-0.422-0.039-0.635
		l128.008-74.845c1.762,6.525,5.363,11.569,10.538,14.557c3.265,1.886,6.924,2.824,10.821,2.824c4.667,0,9.675-1.347,14.751-4.026
		c8.714-4.601,16.721-12.689,22.545-22.777c5.611-9.718,8.593-20.259,8.472-29.822l31.501-18.417
		c1.228-0.718,1.981-2.032,1.981-3.453v-53.061C472.375,164.495,471.96,163.486,471.221,162.737z M237.909,248.308l38.129-22.289
		v35.792l-57.069,33.339L237.909,248.308z M284.038,221.343l71.654-41.886v35.821l-71.654,41.86V221.343z M363.692,174.78
		l9.975-5.831v35.828l-9.975,5.827V174.78z M381.667,164.273l32.025-18.72l12.871,28.323l-44.896,26.228V164.273z M433.507,169.819
		l-12.872-28.325l11.632-6.799l22.458,22.729L433.507,169.819z M307.072,61.282l117.84,68.446L234.65,240.947l-118.354-68.33
		L307.072,61.282z M110.619,178.577l119.062,68.741l-20.657,51.09L89.991,229.599L110.619,178.577z M85.12,236.024l118.617,68.568
		l-73.726,52.561L11.721,288.36L85.12,236.024z M175.467,384.785l-41.235,24.126v-10.48l42.705-24.701
		C176.034,377.477,175.54,381.191,175.467,384.785z M8,295.45l11.855,6.895v25.343L8,320.793V295.45z M27.855,306.997l7.756,4.51
		v25.343l-7.756-4.51V306.997z M43.611,316.16l47.143,27.416v25.343l-47.143-27.416V316.16z M98.754,348.229l7.755,4.51v25.343
		l-7.755-4.51V348.229z M114.509,357.391l11.723,6.818v25.343l-11.723-6.817V357.391z M8,340.54v-10.492l118.231,68.759v9.988
		L8,340.54z M228.414,382.117c-9.98,17.287-27.016,26.928-37.189,21.053c-4.707-2.718-7.459-8.443-7.751-16.123
		c-0.316-8.36,2.307-17.811,7.388-26.61s11.953-15.798,19.352-19.703c3.891-2.054,7.63-3.089,10.999-3.089
		c2.516,0,4.826,0.577,6.839,1.739c4.707,2.718,7.459,8.443,7.751,16.123C236.118,363.867,233.495,373.317,228.414,382.117z
		 M423.493,266.3c-5.081,8.8-11.953,15.797-19.352,19.702c-6.795,3.587-13.129,4.068-17.838,1.35
		c-4.707-2.718-7.459-8.443-7.751-16.123c-0.316-8.359,2.307-17.811,7.388-26.61s11.953-15.797,19.352-19.702
		c3.891-2.054,7.629-3.089,10.998-3.089c2.517,0,4.827,0.578,6.84,1.739c4.707,2.718,7.459,8.443,7.751,16.123
		C431.197,248.049,428.574,257.5,423.493,266.3z M464.375,216.314l-26.534,15.513c-1.695-6.835-5.368-12.104-10.711-15.188
		c-7.174-4.145-16.257-3.717-25.572,1.202c-8.715,4.6-16.721,12.689-22.545,22.777c-5.753,9.965-8.747,20.795-8.46,30.547
		l-128.205,74.96c-1.841-6.099-5.357-10.818-10.297-13.67c-7.173-4.144-16.257-3.715-25.572,1.202
		c-8.715,4.601-16.721,12.689-22.545,22.778c-1.084,1.878-2.07,3.787-2.955,5.714l-46.747,27.038v-25.22l78.787-56.168
		l247.511-144.501l3.846,3.892V216.314z"/>
	<path d="M173.238,169.297l62.975,36.357c0.619,0.357,1.31,0.536,2,0.536c0.689,0,1.38-0.179,1.998-0.535l46.749-26.959
		c1.238-0.714,2.002-2.034,2.002-3.464s-0.762-2.75-2-3.465l-62.976-36.357c-1.238-0.715-2.762-0.714-3.998-0.001l-46.748,26.959
		c-1.238,0.714-2.002,2.034-2.002,3.464S172,168.582,173.238,169.297z M221.985,143.493l54.973,31.737l-38.744,22.343
		l-54.972-31.737L221.985,143.493z"/>
</g>
</svg>