<?xml version="1.0" encoding="UTF-8" standalone="no"?>
<svg
   id="Capa_1"
   viewBox="0 0 800.00003 799.99998"
   version="1.1"
   sodipodi:docname="pickup.svg"
   width="800"
   height="800"
   xmlns:inkscape="http://www.inkscape.org/namespaces/inkscape"
   xmlns:sodipodi="http://sodipodi.sourceforge.net/DTD/sodipodi-0.dtd"
   xmlns="http://www.w3.org/2000/svg"
   xmlns:svg="http://www.w3.org/2000/svg">
  <sodipodi:namedview
     id="namedview1"
     pagecolor="#505050"
     bordercolor="#ffffff"
     borderopacity="1"
     inkscape:showpageshadow="0"
     inkscape:pageopacity="0"
     inkscape:pagecheckerboard="1"
     inkscape:deskcolor="#505050" />
  <defs
     id="defs1">
    <style
       id="style1">.cls-1{fill:#000;stroke-width:0px;}</style>
  </defs>
  <g
     id="g3"
     transform="matrix(0.99999812,0,0,0.99999812,-347.59431,-412.93142)">
    <path
       id="path1"
       class="cls-1"
       d="m 850.65,817.4 v 0 8.19 l 0.12,-8.19 z m 0,0 v 0 8.19 l 0.12,-8.19 z m 0,0 v 0 8.19 l 0.12,-8.19 z" />
    <path
       id="path2"
       class="cls-1"
       d="m 907.96,524.09 v 0 l -0.58,0.35 1.96,-1.04 z m 0,0 v 0 l -0.58,0.35 1.96,-1.04 z" />
    <path
       id="path3"
       class="cls-1"
       d="m 972.75,878.86 c -3.34,-1.96 -10.61,-4.15 -20.98,3.46 -6.11,4.5 -12.11,11.41 -16.83,19.6 -4.72,8.19 -7.84,16.83 -8.53,24.44 -1.38,12.8 4.15,17.99 7.49,19.95 1.61,0.92 3.92,1.84 7.15,1.84 3.69,0 8.3,-1.27 13.84,-5.3 6.11,-4.38 12.11,-11.41 16.83,-19.6 9.57,-16.83 13.03,-37.47 1.04,-44.39 v 0 z m -13.26,37.35 c -7.72,13.49 -16.6,18.22 -18.68,17.87 -1.38,-1.73 -1.61,-11.76 6.11,-25.13 7.72,-13.49 16.49,-18.33 18.68,-17.99 1.5,1.84 1.73,11.76 -6.11,25.25 z" />
    <path
       id="path4"
       class="cls-1"
       d="m 713.22,1025.4 c -3.34,-1.96 -10.61,-4.04 -20.98,3.46 -6.11,4.5 -12.11,11.41 -16.83,19.6 -4.72,8.19 -7.84,16.95 -8.53,24.44 -1.27,12.8 4.15,17.99 7.49,19.95 1.61,0.92 3.92,1.84 7.15,1.84 3.69,0 8.3,-1.27 13.84,-5.3 6.11,-4.38 12.11,-11.41 16.83,-19.6 9.68,-16.83 13.14,-37.47 1.04,-44.39 z m -13.14,37.35 c -7.72,13.49 -16.6,18.22 -18.68,17.99 -1.38,-1.73 -1.61,-11.76 6.11,-25.13 7.72,-13.49 16.49,-18.33 18.68,-17.99 1.38,1.73 1.61,11.64 -6.11,25.13 z" />
  </g>
  <path
     id="path6"
     class="cls-1"
     d="m 801.21353,224.25739 c -0.58,-1.04 -1.5,-1.96 -2.54,-2.54 l -112.6398,-65.02987 -109.18978,-63.069895 -3.57,-2.07999 c -1.03999,-0.58 -2.30999,-0.92 -3.45999,-0.92 -1.15,0 -2.42,0.35 -3.45999,0.92 l -3.57,2.07999 -145.96972,84.279855 -103.41981,57.52989 -43.57991,-23.97996 -121.63978,69.51987 c -1.03999,0.58 -1.95999,1.5 -2.53999,2.42 v 0 L 73.804895,405.71705 4.0550349,475.46691 c -1.27,1.27 -2.08,3.11 -2.08,4.96 v 98.91981 c 0,2.53999 1.38,4.83999 3.45999,6.10999 L 231.4146,715.97644 c 1.04,0.58 2.30999,0.92 3.45999,0.92 1.15,0 2.42,-0.35 3.45999,-0.92 0.46,-0.23 50.37991,-28.9399 50.37991,-28.9399 2.87999,11.41 9.10998,20.7499 18.55996,26.1699 5.64999,3.23 11.98998,4.84 18.67997,4.84 8.06998,0 16.71997,-2.31 25.47995,-6.92 15.09997,-7.96 28.93995,-21.9099 38.96993,-39.3199 9.56998,-16.6 14.75997,-34.6999 14.63997,-51.0799 L 547.784,539.44679 c 2.77,11.98998 9.10998,21.67996 18.90997,27.32995 5.75998,3.34 12.21997,4.95999 18.90996,4.95999 22.24996,0 47.61991,-17.40996 64.33988,-46.34991 9.92002,-17.17997 15.10002,-35.73993 14.64002,-52.5799 l 68.9498,-43.11992 c 2.08,-1.27 3.23,-3.45999 3.23,-5.99999 v -28.01994 l 61.6799,-35.50994 c 2.19,-1.27 3.46,-3.56999 3.46,-6.10999 v -126.24976 0 c 0.23,-1.27 -0.12,-2.53999 -0.69,-3.56999 z m -227.24958,-68.70987 1.96,-42.88992 0.12,-2.54 v -0.58 l 6.10999,3.57 53.95989,31.58994 9.21999,5.75999 135.58971,77.35985 -51.0399,29.56995 -148.06969,-88.94984 -0.58,-0.35 -7.60999,-5.06999 0.35,-7.48998 z m 139.95978,110.18979 -210.40965,122.35977 0.69,-43.92992 -89.23983,-50.1499 -18.55996,-10.48998 -0.58,-0.35 -3.23,-1.84 1.04,-0.58 86.81984,-52.1099 74.93986,-45.07992 2.99999,-1.83999 8.87998,-5.29999 m -140.07973,11.62998 88.19983,-50.95991 0.92,-0.58 8.18999,-4.72999 1.26999,-0.81 33.89994,-19.59996 0.12,-0.12 v 0 l 0.46,-0.35 h 0.12 l 1.38,-0.69 v 1.15 l -2.08,42.07992 -0.58,10.71998 -1.27,0.81 -1.72999,1.04 -1.61,0.92 -0.58,0.35 -82.66984,50.1499 -91.77983,55.3399 -1.04,0.58 -0.92,-0.46 -43.00992,-24.20996 -8.06998,-4.60999 100.76981,-56.02989 z m -157.03971,39.77992 45.99992,26.51995 49.3499,28.47995 2.42,1.38 5.64999,3.22999 8.29998,4.72999 100.30982,57.87989 -24.89996,14.17997 -11.63998,6.56999 -67.90987,38.50993 -211.9196,-122.20977 104.3398,-59.25989 z m -115.97978,68.71987 213.8796,123.47977 -10.25998,17.40997 -213.8796,-123.47977 z M 136.87478,326.0672 350.75437,449.66696 302.90446,531.06681 89.024875,407.46704 Z m -120.829775,167.29968 12.44998,7.14999 v 47.38991 l -12.44998,-7.14999 z M 227.9646,697.78654 16.045005,575.33673 V 557.00676 L 227.9646,679.56654 Z M 42.444955,556.08676 v -47.38991 l 157.609705,91.07979 v 47.39 z m 185.519645,107.21978 -13.83997,-8.07 v -47.3899 l 13.83997,8.07 z m 5.29999,-60.5299 -213.409585,-123.36973 60.64988,-60.64989 213.409595,123.24977 -60.64989,60.75985 z m 145.15973,62.0299 c -8.75998,15.22 -20.63996,27.21 -33.31994,34.01 -11.63997,6.2299 -22.59995,7.0299 -30.66994,2.3099 -17.52997,-10.1499 -17.75997,-43.8099 -0.58,-73.6698 8.75999,-15.22 20.63996,-27.21 33.31994,-34.0099 6.68999,-3.57 13.13997,-5.3 18.90996,-5.3 4.38,0 8.29999,1.04 11.75998,3 8.06999,4.6099 12.79998,14.5299 13.36998,27.7899 0.58,14.41 -3.92,30.7799 -12.79998,45.8899 v 0 z m 110.67979,-107.91978 -85.54984,48.76988 c -2.87999,-11.9899 -9.33998,-21.20993 -18.67996,-26.51992 -12.44998,-7.14999 -28.12995,-6.45999 -44.26992,2.08 -15.09997,7.96002 -28.93994,21.90992 -38.96992,39.31992 -10.14999,17.53 -14.98998,35.6299 -14.75998,51.5399 l -44.96991,25.6 v -83.8199 l 67.32987,-67.32986 179.74966,-103.3098 v 113.67978 h 0.12 z m 0.35,-168.43968 -0.23,17.75997 -0.23,20.86996 -164.75969,95.11982 58.45989,-99.49982 72.28987,-41.38992 12.67997,-7.25998 22.13996,-12.67998 -0.35,27.08995 z M 546.414,524.26682 503.17409,548.93678 V 530.48681 L 548.944,504.08686 c -1.61,6.91999 -2.54,13.71997 -2.54,20.17996 v 0 z m 91.53983,-5.99999 c -13.71997,23.86996 -35.27993,39.31993 -52.3399,39.31993 -4.26999,0 -8.18998,-0.92 -11.63998,-2.99999 -17.52996,-10.14999 -17.75996,-43.80992 -0.58,-73.66987 8.75999,-15.21997 20.63996,-27.20994 33.31994,-34.00993 6.68999,-3.56999 13.13998,-5.29999 18.90996,-5.29999 4.38,0 8.29999,1.04 11.75998,2.99999 8.06999,4.72999 12.79998,14.52998 13.36998,27.78995 0.46,14.40997 -4.04,30.77994 -12.79998,45.88991 v 0 z m 84.9698,-98.45981 -60.2998,37.69993 c -1.61,-5.75999 -3.92,-10.71998 -7.03,-14.98997 l 67.4498,-38.84993 v 16.13997 z m 65.1499,-69.86987 -143.42971,82.66985 c -0.12,0 -0.12,-0.12 -0.23,-0.12 -12.44998,-7.14999 -28.12995,-6.45999 -44.26992,2.07999 -15.09997,7.95999 -28.93994,21.90996 -38.96992,39.31993 -1.84,3.22999 -3.57,6.45999 -5.06999,9.79998 l -52.9199,30.54994 -0.12,-101.57981 v -8.06998 0 l 0.12,-0.12 142.38973,-82.20985 74.13981,-42.77992 1.27,-0.80999 12.68,-7.25999 1.38,-0.81 53.0399,-30.66994 v 109.98979 z" />
</svg>
